<svg width="212" height="103" viewBox="0 0 212 103" fill="none" xmlns="http://www.w3.org/2000/svg">
<g filter="url(#filter0_d)">
<path d="M46.264 4.176C47.32 4.224 47.848 4.56 47.848 5.184C47.848 5.904 47.272 6.72 46.12 7.632C45.016 8.496 44.032 8.928 43.168 8.928C39.04 8.928 34.456 9.048 29.416 9.288C25.336 25.656 22.504 40.824 20.92 54.792C21.592 54.84 22.144 55.008 22.576 55.296C23.056 55.536 23.296 55.872 23.296 56.304C23.296 56.88 22.864 57.504 22 58.176L19.192 60.336C18.856 60.672 18.208 60.984 17.248 61.272C16.336 61.56 15.472 61.704 14.656 61.704C13.168 61.704 12.496 61.104 12.64 59.904C14.32 44.112 17.392 27.504 21.856 10.08L21.784 9.792C16.312 10.272 11.2 10.8 6.448 11.376C5.728 11.472 5.152 11.376 4.72 11.088C4.288 10.752 4.096 10.248 4.144 9.576C4.192 8.904 4.6 8.352 5.368 7.92C6.184 7.488 7.048 7.152 7.96 6.912C12.568 5.568 17.704 4.656 23.368 4.176L23.8 2.952C23.992 2.28 24.664 1.704 25.816 1.224C26.968 0.695998 28.096 0.431999 29.2 0.431999C29.92 0.431999 30.472 0.575998 30.856 0.863997C31.288 1.152 31.432 1.56 31.288 2.088L30.856 3.744L34.24 3.672C37.744 3.672 41.752 3.84 46.264 4.176ZM62.6811 35.208C62.6811 30.12 59.7051 26.112 53.7531 23.184C52.2651 24.432 50.7771 26.088 49.2891 28.152C47.4651 30.792 45.9531 33.744 44.7531 37.008C44.2731 38.304 43.8171 40.08 43.3851 42.336C42.9531 44.544 42.7371 46.608 42.7371 48.528C42.7371 50.496 43.0011 52.08 43.5291 53.28C44.1051 54.432 45.0171 55.008 46.2651 55.008C47.2731 55.008 48.4491 54.6 49.7931 53.784C53.4891 51.624 56.5611 48.936 59.0091 45.72C61.4571 42.504 62.6811 39 62.6811 35.208ZM64.6971 22.176C66.4251 23.808 67.7451 25.656 68.6571 27.72C69.6171 29.784 70.0971 31.968 70.0971 34.272C70.0971 37.584 69.1371 40.944 67.2171 44.352C65.9211 46.656 64.0251 49.08 61.5291 51.624C59.0331 54.168 56.2491 56.328 53.1771 58.104C50.1531 59.832 47.2491 60.696 44.4651 60.696C42.7371 60.696 41.1051 60.312 39.5691 59.544C36.3051 57.768 34.6731 54.576 34.6731 49.968C34.6731 46.656 35.4171 43.032 36.9051 39.096C38.3931 35.112 39.9771 31.752 41.6571 29.016C45.7371 22.536 50.0331 18.456 54.5451 16.776C55.7931 16.296 57.1371 16.056 58.5771 16.056C60.2571 16.056 61.6731 16.488 62.8251 17.352C63.9771 18.168 64.6491 19.464 64.8411 21.24V21.528C64.8411 21.672 64.7931 21.888 64.6971 22.176ZM79.1944 54.144C80.1064 54.864 81.2824 55.224 82.7224 55.224C84.4024 55.224 86.5384 54.672 89.1304 53.568C90.6664 44.688 91.8664 35.952 92.7304 27.36H92.5864C89.9944 27.36 87.6184 28.248 85.4584 30.024C83.2984 31.8 81.4984 34.008 80.0584 36.648C78.6664 39.288 77.7064 41.904 77.1784 44.496C76.9384 45.696 76.8184 46.872 76.8184 48.024C76.8184 50.856 77.6104 52.896 79.1944 54.144ZM94.4584 4.536C94.5064 3.672 95.1064 2.928 96.2584 2.304C97.4104 1.632 98.5864 1.296 99.7864 1.296C101.274 1.296 101.994 1.848 101.946 2.952C101.13 18.792 99.4024 35.136 96.7624 51.984C97.5304 52.368 97.9144 52.872 97.9144 53.496C97.9144 54.216 97.3384 54.912 96.1864 55.584L95.7544 58.248C95.5624 59.16 94.8664 59.952 93.6664 60.624C92.5144 61.248 91.3624 61.56 90.2104 61.56C89.4904 61.56 88.9144 61.416 88.4824 61.128C88.0504 60.792 87.9064 60.312 88.0504 59.688C88.0504 59.448 88.0744 59.28 88.1224 59.184C85.0504 60.144 82.5064 60.624 80.4904 60.624C78.2824 60.624 76.2904 60.144 74.5144 59.184C72.7384 58.272 71.4424 56.952 70.6264 55.224C69.8104 53.496 69.4024 51.552 69.4024 49.392C69.4024 48.624 69.4984 47.568 69.6904 46.224C70.3624 42.336 71.8024 38.592 74.0104 34.992C76.2184 31.392 79.0024 28.44 82.3624 26.136C85.7224 23.832 89.3464 22.608 93.2344 22.464C93.8104 15.888 94.2184 9.912 94.4584 4.536ZM129.97 35.208C129.97 30.12 126.994 26.112 121.042 23.184C119.554 24.432 118.066 26.088 116.578 28.152C114.754 30.792 113.242 33.744 112.042 37.008C111.562 38.304 111.106 40.08 110.674 42.336C110.242 44.544 110.026 46.608 110.026 48.528C110.026 50.496 110.29 52.08 110.818 53.28C111.394 54.432 112.306 55.008 113.554 55.008C114.562 55.008 115.738 54.6 117.082 53.784C120.778 51.624 123.85 48.936 126.298 45.72C128.746 42.504 129.97 39 129.97 35.208ZM131.986 22.176C133.714 23.808 135.034 25.656 135.946 27.72C136.906 29.784 137.386 31.968 137.386 34.272C137.386 37.584 136.426 40.944 134.506 44.352C133.21 46.656 131.314 49.08 128.818 51.624C126.322 54.168 123.538 56.328 120.466 58.104C117.442 59.832 114.538 60.696 111.754 60.696C110.026 60.696 108.394 60.312 106.858 59.544C103.594 57.768 101.962 54.576 101.962 49.968C101.962 46.656 102.706 43.032 104.194 39.096C105.682 35.112 107.266 31.752 108.946 29.016C113.026 22.536 117.322 18.456 121.834 16.776C123.082 16.296 124.426 16.056 125.866 16.056C127.546 16.056 128.962 16.488 130.114 17.352C131.266 18.168 131.938 19.464 132.13 21.24V21.528C132.13 21.672 132.082 21.888 131.986 22.176ZM156.996 21.6C154.548 23.472 152.556 26.496 151.02 30.672C155.724 28.896 159.972 27.408 163.764 26.208C162.18 24 160.572 22.512 158.94 21.744C158.604 21.6 158.268 21.504 157.932 21.456C157.644 21.408 157.476 21.384 157.428 21.384C157.476 21.432 157.428 21.48 157.284 21.528C157.188 21.576 157.092 21.6 156.996 21.6ZM157.284 16.488C158.052 16.296 158.868 16.2 159.732 16.2C164.34 16.2 168.516 19.296 172.26 25.488C172.404 25.68 172.476 25.92 172.476 26.208C172.476 26.736 172.14 27.288 171.468 27.864C170.94 28.44 170.268 28.896 169.452 29.232C164.652 31.344 157.98 33.864 149.436 36.792C148.956 39.24 148.716 41.76 148.716 44.352C148.716 45.552 148.74 46.416 148.788 46.944C148.884 49.104 149.316 50.976 150.084 52.56C150.324 53.088 150.66 53.592 151.092 54.072C151.572 54.552 151.932 54.864 152.172 55.008C152.316 55.104 152.556 55.152 152.892 55.152C153.228 55.152 153.612 55.056 154.044 54.864C154.524 54.672 155.052 54.408 155.628 54.072C157.02 53.256 158.316 52.32 159.516 51.264C160.716 50.208 162.156 48.84 163.836 47.16C164.508 46.488 165.636 46.152 167.22 46.152C168.084 46.152 168.804 46.296 169.38 46.584C170.004 46.824 170.316 47.184 170.316 47.664C170.316 48.096 170.076 48.576 169.596 49.104C166.62 52.32 163.572 55.056 160.452 57.312C157.332 59.568 154.212 60.696 151.092 60.696C149.604 60.696 148.212 60.384 146.916 59.76C144.756 58.752 143.196 57.144 142.236 54.936C141.276 52.728 140.796 50.136 140.796 47.16C140.796 44.952 141.084 42.36 141.66 39.384L141.084 39.528L140.508 39.744C139.788 39.984 139.212 40.104 138.78 40.104C138.108 40.104 137.58 39.936 137.196 39.6C136.812 39.264 136.62 38.832 136.62 38.304C136.62 37.68 136.86 37.08 137.34 36.504C137.868 35.88 138.636 35.376 139.644 34.992L143.172 33.624C143.604 32.28 144.252 30.528 145.116 28.368C146.46 25.392 148.14 22.824 150.156 20.664C152.172 18.504 154.548 17.112 157.284 16.488ZM181.778 89.208C181.586 89.304 181.514 89.424 181.562 89.568C181.562 89.472 181.634 89.352 181.778 89.208ZM199.562 17.856C199.562 16.944 200.114 16.152 201.218 15.48C202.322 14.808 203.474 14.472 204.674 14.472C205.394 14.472 205.97 14.64 206.402 14.976C206.882 15.264 207.122 15.744 207.122 16.416C207.17 18.864 207.002 21.264 206.618 23.616C206.282 25.92 205.706 29.136 204.89 33.264C204.506 34.992 204.242 36.264 204.098 37.08C202.418 46.104 200.354 55.368 197.906 64.872C196.61 70.008 195.434 74.208 194.378 77.472C193.37 80.784 192.098 83.952 190.562 86.976C189.602 88.848 188.354 90.504 186.818 91.944C185.282 93.432 183.674 94.176 181.994 94.176C180.842 94.176 179.714 93.768 178.61 92.952C175.874 90.84 174.506 86.256 174.506 79.2C174.506 77.28 174.626 74.52 174.866 70.92C174.914 70.008 175.514 69.216 176.666 68.544C177.818 67.872 178.994 67.536 180.194 67.536C181.826 67.536 182.618 68.16 182.57 69.408C182.474 71.616 182.426 73.296 182.426 74.448C182.426 77.088 182.57 79.656 182.858 82.152C182.906 82.44 182.978 82.92 183.074 83.592C183.218 84.264 183.386 84.864 183.578 85.392C183.77 84.864 184.034 84.312 184.37 83.736C185.378 81.528 186.026 79.968 186.314 79.056C187.322 76.128 188.57 71.88 190.058 66.312C191.402 61.176 192.53 56.568 193.442 52.488C190.802 55.704 187.946 57.696 184.874 58.464C183.386 58.8 182.234 58.968 181.418 58.968C176.042 58.968 173.354 54.912 173.354 46.8C173.354 40.656 174.938 32.304 178.106 21.744C178.346 20.88 179.018 20.112 180.122 19.44C181.226 18.72 182.282 18.36 183.29 18.36C184.634 18.36 185.426 18.984 185.666 20.232C185.762 20.76 185.594 21.576 185.162 22.68C184.73 23.784 184.466 24.504 184.37 24.84C183.602 27.72 183.074 29.88 182.786 31.32L182.426 32.832C181.85 35.28 181.37 37.512 180.986 39.528C180.602 41.544 180.41 43.488 180.41 45.36C180.41 48.768 181.154 51.144 182.642 52.488C183.026 52.872 183.482 53.064 184.01 53.064C185.546 53.064 187.106 51.696 188.69 48.96C190.274 46.176 191.882 42.96 193.514 39.312C195.146 35.568 196.418 32.4 197.33 29.808C198.29 27.168 198.938 24.528 199.274 21.888C199.37 20.928 199.466 19.584 199.562 17.856Z" fill="black"/>
</g>
<defs>
<filter id="filter0_d" x="0.136803" y="0.432007" width="210.993" height="101.744" filterUnits="userSpaceOnUse" color-interpolation-filters="sRGB">
<feFlood flood-opacity="0" result="BackgroundImageFix"/>
<feColorMatrix in="SourceAlpha" type="matrix" values="0 0 0 0 0 0 0 0 0 0 0 0 0 0 0 0 0 0 127 0"/>
<feOffset dy="4"/>
<feGaussianBlur stdDeviation="2"/>
<feColorMatrix type="matrix" values="0 0 0 0 0 0 0 0 0 0 0 0 0 0 0 0 0 0 0.25 0"/>
<feBlend mode="normal" in2="BackgroundImageFix" result="effect1_dropShadow"/>
<feBlend mode="normal" in="SourceGraphic" in2="effect1_dropShadow" result="shape"/>
</filter>
</defs>
</svg>
