<?xml version="1.0" standalone="no"?>
<!DOCTYPE svg PUBLIC "-//W3C//DTD SVG 20010904//EN"
 "http://www.w3.org/TR/2001/REC-SVG-20010904/DTD/svg10.dtd">
<svg version="1.0" xmlns="http://www.w3.org/2000/svg"
 width="420.000000pt" height="420.000000pt" viewBox="0 0 420.000000 420.000000"
 preserveAspectRatio="xMidYMid meet">
<metadata>
Created by potrace 1.11, written by Peter Selinger 2001-2013
</metadata>
<g transform="translate(0.000000,420.000000) scale(0.100000,-0.100000)"
fill="#000000" stroke="none">
<path d="M2990 3989 c-69 -27 -134 -54 -145 -59 -19 -8 -493 -198 -1130 -452
-165 -66 -313 -126 -330 -133 -16 -7 -156 -63 -310 -125 -154 -62 -291 -117
-305 -123 -14 -6 -27 -11 -30 -11 -7 -2 -119 -46 -155 -62 -16 -7 -152 -62
-302 -122 l-272 -108 20 -35 20 -34 -26 30 -25 30 5 -50 c15 -156 19 -195 30
-336 3 -37 7 -84 10 -105 2 -22 6 -73 10 -114 3 -41 8 -91 10 -110 2 -19 6
-70 9 -112 4 -43 8 -95 10 -115 4 -35 13 -131 21 -243 2 -25 6 -67 9 -95 3
-27 8 -81 11 -120 3 -38 7 -86 10 -105 2 -19 7 -71 11 -115 7 -87 8 -100 19
-220 10 -111 12 -139 20 -225 9 -115 16 -173 19 -179 6 -12 319 -526 322 -530
2 -2 50 17 106 42 163 72 583 255 693 302 55 24 131 57 168 74 37 17 69 31 72
31 2 0 34 14 72 31 37 16 77 34 88 39 11 5 45 20 75 33 30 13 105 46 165 72
111 48 152 66 235 103 36 16 406 177 650 283 25 11 54 24 65 29 11 6 99 44
195 86 96 41 264 114 372 161 l196 86 -1 31 c-2 33 14 44 174 115 29 14 104
48 164 77 61 28 120 55 133 58 12 4 22 10 22 14 0 4 -24 23 -53 42 -77 50
-204 184 -268 280 -156 238 -279 607 -303 910 -4 41 -9 100 -11 130 -10 130
-16 197 -20 220 -2 14 -7 70 -11 125 -3 55 -8 111 -9 125 -2 14 -3 51 -4 83
-1 36 -5 56 -11 52 -5 -3 -10 -2 -10 3 0 10 -17 30 -167 189 -62 65 -130 138
-151 160 l-38 42 -124 -50z m370 -393 c0 -2 -7 -7 -16 -10 -8 -3 -12 -2 -9 4
6 10 25 14 25 6z m-71 -31 c-9 -8 -79 -35 -79 -30 0 3 15 11 33 19 32 15 54
20 46 11z m-119 -49 c0 -3 -4 -8 -10 -11 -5 -3 -10 -1 -10 4 0 6 5 11 10 11 6
0 10 -2 10 -4z m-44 -21 c-11 -8 -25 -15 -30 -15 -6 1 0 7 14 15 32 19 40 18
16 0z m-46 -19 c0 -2 -7 -7 -16 -10 -8 -3 -12 -2 -9 4 6 10 25 14 25 6z m-69
-31 c-18 -8 -36 -15 -40 -15 -13 1 45 29 59 29 8 0 0 -6 -19 -14z m-62 -29
c-2 -2 -15 -7 -29 -10 l-25 -7 25 15 c21 12 42 14 29 2z m-79 -30 c-14 -7 -36
-16 -50 -20 -14 -3 -7 3 15 13 45 22 73 27 35 7z m-135 -56 c-33 -16 -64 -29
-70 -29 -13 1 107 57 120 57 6 0 -17 -13 -50 -28z m-150 -65 c-27 -13 -54 -24
-60 -24 -5 1 13 11 40 24 28 13 55 24 60 24 6 -1 -12 -11 -40 -24z m-76 -30
c-9 -8 -79 -35 -79 -30 0 3 15 11 33 19 32 15 54 20 46 11z m-89 -39 c0 -2 -9
-6 -20 -9 -11 -3 -18 -1 -14 4 5 9 34 13 34 5z m-70 -31 c-14 -8 -29 -14 -35
-14 -5 0 1 6 15 14 14 8 30 14 35 14 6 0 -1 -6 -15 -14z m-51 -19 c-9 -8 -173
-76 -176 -72 -4 4 157 75 171 76 5 0 7 -2 5 -4z m-209 -91 c-14 -8 -29 -14
-35 -14 -5 0 1 6 15 14 14 8 30 14 35 14 6 0 -1 -6 -15 -14z m-109 -45 c-35
-17 -66 -30 -70 -29 -10 1 113 59 124 59 6 -1 -19 -14 -54 -30z m-81 -34 c0
-2 -9 -6 -20 -9 -11 -3 -18 -1 -14 4 5 9 34 13 34 5z m-70 -30 c-14 -7 -36
-16 -50 -20 -14 -3 -7 3 15 13 45 22 73 27 35 7z m-110 -45 c-19 -10 -46 -21
-60 -25 -14 -3 -2 5 25 18 58 28 87 34 35 7z m-130 -56 c-25 -13 -49 -24 -55
-24 -5 0 10 11 35 24 25 13 50 24 55 24 6 0 -10 -11 -35 -24z m-80 -35 c-8 -5
-19 -10 -25 -10 -5 0 -3 5 5 10 8 5 20 10 25 10 6 0 3 -5 -5 -10z m-50 -20
c-8 -5 -19 -10 -25 -10 -5 0 -3 5 5 10 8 5 20 10 25 10 6 0 3 -5 -5 -10z m-45
-19 c-13 -11 -81 -34 -71 -24 4 5 22 13 39 20 40 15 43 15 32 4z m-95 -41
c-26 -15 -126 -52 -117 -44 10 10 107 52 122 53 6 0 3 -4 -5 -9z m-140 -60
c-8 -5 -19 -10 -25 -10 -5 0 -3 5 5 10 8 5 20 10 25 10 6 0 3 -5 -5 -10z m-50
-20 c-8 -5 -19 -10 -25 -10 -5 0 -3 5 5 10 8 5 20 10 25 10 6 0 3 -5 -5 -10z
m-40 -15 c0 -5 -69 -35 -79 -34 -5 0 68 38 77 39 1 0 2 -2 2 -5z m-139 -61
c-29 -13 -56 -24 -60 -23 -9 1 93 49 104 48 6 0 -14 -11 -44 -25z m-72 -28
c-9 -8 -152 -66 -156 -63 -4 4 136 66 151 67 5 0 7 -2 5 -4z m-179 -76 c-8 -5
-19 -10 -25 -10 -5 0 -3 5 5 10 8 5 20 10 25 10 6 0 3 -5 -5 -10z m-40 -15 c0
-5 -69 -35 -79 -34 -5 0 68 38 77 39 1 0 2 -2 2 -5z m-110 -50 c-14 -8 -32
-14 -40 -14 -8 0 -1 6 15 14 40 18 57 18 25 0z m-60 -20 c0 -5 -90 -45 -99
-44 -5 0 89 48 97 49 1 0 2 -2 2 -5z m-120 -55 c-8 -5 -19 -10 -25 -10 -5 0
-3 5 5 10 8 5 20 10 25 10 6 0 3 -5 -5 -10z m-45 -20 c-3 -5 -12 -10 -18 -10
-7 0 -6 4 3 10 19 12 23 12 15 0z"/>
</g>
</svg>
