<?xml version="1.0" standalone="no"?>
<!DOCTYPE svg PUBLIC "-//W3C//DTD SVG 20010904//EN"
 "http://www.w3.org/TR/2001/REC-SVG-20010904/DTD/svg10.dtd">
<svg version="1.0" xmlns="http://www.w3.org/2000/svg"
 width="182.000000pt" height="182.000000pt" viewBox="0 0 182.000000 182.000000"
 preserveAspectRatio="xMidYMid meet">
<metadata>
Created by potrace 1.11, written by Peter Selinger 2001-2013
</metadata>
<g transform="translate(0.000000,182.000000) scale(0.100000,-0.100000)"
fill="#000000" stroke="none">
<path d="M1185 1504 c-77 -25 -147 -46 -156 -48 -17 -4 -316 -97 -554 -171
-82 -26 -170 -53 -195 -60 -25 -7 -90 -27 -145 -45 -55 -18 -108 -34 -117 -37
-13 -4 -16 -13 -13 -37 2 -17 7 -58 10 -91 8 -78 14 -132 20 -175 2 -19 7 -60
10 -90 11 -98 16 -134 20 -160 2 -14 7 -59 11 -100 8 -95 10 -99 88 -197 l65
-82 313 105 c172 58 320 107 328 110 8 2 121 40 250 84 129 44 290 98 357 121
67 22 121 45 120 51 -1 5 44 26 100 47 57 20 103 38 103 41 0 3 -15 14 -34 24
-113 60 -214 241 -231 411 -3 33 -8 74 -10 90 -2 17 -7 53 -11 80 -3 28 -7 51
-8 51 -43 42 -152 124 -164 123 -10 0 -80 -21 -157 -45z"/>
</g>
</svg>
